<?xml version="1.0" encoding="utf-8"?>
<!-- Generator: Adobe Illustrator 19.2.1, SVG Export Plug-In . SVG Version: 6.00 Build 0)  -->
<svg version="1.1" id="layer" xmlns="http://www.w3.org/2000/svg" xmlns:xlink="http://www.w3.org/1999/xlink" x="0px" y="0px"
	 viewBox="0 0 652 652" style="enable-background:new 0 0 652 652;" xml:space="preserve">
<path d="M109,306.7c0,27.1-7.1,32.2-37.8,32.2H51.9c-23.3,0-30.4-8.3-30.4-24.5v-61.9c0-4.1,2.1-6.7,6.3-6.7h6.3
	c4.2,0,6.3,2.7,6.3,6.8v14.6c0,4.6,1.5,5.5,9.7,5.5h21.3c30.3,0,37.8,4.8,37.8,31.9V306.7z M90.2,304.5c0-16.2-3.1-18.9-23-18.9h-11
	c-13.6,0-16.1,2.3-16.1,14.2v10.1c0,12.5,3.5,15.8,19.9,15.8H67c20.2,0,23.2-2.7,23.2-18.9V304.5z M201.9,310H154
	c-4.6,0-6,1.2-6,3.9c0,8.6,2.4,11.3,24.3,11.3h33.8c3.7,0,6.1,1.5,6.1,5.2v1.6c0,5.5-2.9,6.8-28.9,6.8h-11.7
	c-33.5,0-41.8-4.9-41.8-32.8v-1.2c0-26.6,9.9-32.2,39.5-32.2h4.1c30.9,0,40.2,4.1,40.2,26.4C213.6,306.7,209.8,310,201.9,310
	 M172.3,284.6h-1.6c-18.4,0-22.5,3.1-22.5,10.9c0,2.3,0.7,3.4,4.9,3.4h37.8c4.3,0,4.9-1.4,4.9-3.8
	C195.7,288,192.5,284.6,172.3,284.6 M308.5,292.5c0-14.4-7.9-19.9-25.9-19.9h-29.2c-13.1,0-16.6,5.3-16.6,14v45.1
	c0,4.1,2.2,6.7,6.3,6.7h6.3c4.2,0,6.3-2.6,6.3-6.7v-39.1c0-4.6,2.6-6.8,7.8-6.8h13.5c11.7,0,13.5,2.6,14.2,9.1
	c0.3,3.7,2.2,5.6,6.4,5.6h4.9c4.1,0,6.1-2.7,6.1-6.5V292.5z M469.4,252.6c0-4.1-2.2-6.8-6.4-6.8h-6.1c-4.2,0-6.3,2.6-6.3,6.7v79.2
	c0,4.1,2.2,6.8,6.4,6.8h6.1c4.2,0,6.3-2.6,6.3-6.7V252.6z M514.4,252.6c0-4.1-2.2-6.8-6.4-6.8h-6.1c-4.2,0-6.3,2.6-6.3,6.7v79.2
	c0,4.1,2.2,6.8,6.4,6.8h6.1c4.2,0,6.3-2.6,6.3-6.7V252.6z M621.5,317.3c0-15.9-7-18.7-40.5-18.7c-21.8,0-23.9-1.2-23.9-6.4v-1
	c0-3.7,2.3-5.7,12.4-5.7h42.8c3.8,0,6.4-1.2,6.4-4.9v-1.2c0-5.3-3.8-6.8-29.6-6.8h-16.6c-26,0-33.4,4.6-33.4,19.3v1.8
	c0,14.5,5.3,17.9,39.9,17.9c22.6,0,24.4,1.4,24.4,6.7v1.2c0,4.6-2.2,6.3-15.4,6.3h-44.3c-3.8,0-6.1,1.5-6.1,4.6v1.2
	c0,5.6,1.9,7.2,27,7.2H588c26.2,0,33.5-5.3,33.5-20.2V317.3z M429.4,288c2.9-2.9,3.3-6.3,0.3-9.3l-4.3-4.3c-3-3-6.3-2.6-9.2,0.3
	l-23.7,23.7c-2.9,2.9-3.3,6.3-0.3,9.3l4.3,4.3c3,3,6.3,2.6,9.2-0.3L429.4,288z M363.6,327.3L324,287.6c-2.9-2.9-3.3-6.2-0.3-9.2
	l4.3-4.3c3-3,6.5-2.6,9.4,0.3l48,48c2.9,2.9,3.3,6.2,0.3,9.2 M363.6,327.3l-55.2,55.2c-2.9,2.9-3.3,6.4-0.3,9.4l4.3,4.3
	c3,3,6.3,2.6,9.2-0.3l64-64.3"/>
</svg>
