<?xml version="1.0" encoding="UTF-8" standalone="no"?>
<svg
   viewBox="0 0 175.5248 25.779467"
   height="25.779467"
   width="175.5248"
   xml:space="preserve"
   id="svg2"
   version="1.1"
   sodipodi:docname="NH Investment &amp; Securities (kor).svg"
   inkscape:version="1.1 (c68e22c387, 2021-05-23)"
   xmlns:inkscape="http://www.inkscape.org/namespaces/inkscape"
   xmlns:sodipodi="http://sodipodi.sourceforge.net/DTD/sodipodi-0.dtd"
   xmlns="http://www.w3.org/2000/svg"
   xmlns:svg="http://www.w3.org/2000/svg"
   xmlns:rdf="http://www.w3.org/1999/02/22-rdf-syntax-ns#"
   xmlns:cc="http://creativecommons.org/ns#"
   xmlns:dc="http://purl.org/dc/elements/1.1/"><sodipodi:namedview
     id="namedview1783"
     pagecolor="#ffffff"
     bordercolor="#666666"
     borderopacity="1.0"
     inkscape:pageshadow="2"
     inkscape:pageopacity="0.0"
     inkscape:pagecheckerboard="0"
     showgrid="false"
     inkscape:zoom="0.7622549"
     inkscape:cx="433.58199"
     inkscape:cy="199.40836"
     inkscape:window-width="1368"
     inkscape:window-height="850"
     inkscape:window-x="-6"
     inkscape:window-y="-6"
     inkscape:window-maximized="1"
     inkscape:current-layer="g16" /><metadata
     id="metadata8"><rdf:RDF><cc:Work
         rdf:about=""><dc:format>image/svg+xml</dc:format><dc:type
           rdf:resource="http://purl.org/dc/dcmitype/StillImage" /></cc:Work></rdf:RDF></metadata><defs
     id="defs6"><clipPath
       id="clipPath20"
       clipPathUnits="userSpaceOnUse"><path
         id="path18"
         d="M 0,612 H 792 V 0 H 0 Z" /></clipPath></defs><g
     transform="matrix(1.3333333,0,0,-1.3333333,-85.615465,701.65758)"
     id="g10"><g
       id="g14"><g
         clip-path="url(#clipPath20)"
         id="g16"><g
           transform="translate(75.8506,526.2432)"
           id="g130"><path
             id="path132"
             style="fill:#fdbd40;fill-opacity:1;fill-rule:nonzero;stroke:none"
             d="M 0,0 -3.813,-1.915 -7.625,0 -3.813,-7.249 Z" /></g><g
           transform="translate(77.1846,520.6406)"
           id="g134"><path
             id="path136"
             style="fill:#fdbd40;fill-opacity:1;fill-rule:nonzero;stroke:none"
             d="m 0,0 -0.059,0.05 2.72,1.145 V 5.019 L -2.065,3.003 c 0,0 -2.559,-4.847 -2.619,-4.959 2.006,-0.24 3.511,-1.921 3.511,-3.947 0,-2.193 -1.782,-3.979 -3.974,-3.979 -2.193,0 -3.977,1.786 -3.977,3.979 0,2.026 1.505,3.707 3.51,3.947 -0.059,0.112 -2.615,4.959 -2.615,4.959 L -12.95,5.019 V 1.195 L -10.231,0.05 -10.29,0 c -1.705,-1.49 -2.683,-3.641 -2.683,-5.903 0,-4.316 3.51,-7.829 7.826,-7.829 4.315,0 7.827,3.513 7.827,7.829 C 2.68,-3.644 1.703,-1.492 0,0" /></g><g
           transform="translate(177.7725,516.1313)"
           id="g138"><path
             id="path140"
             style="fill:#007ec3;fill-opacity:1;fill-rule:nonzero;stroke:none"
             d="M 0,0 C 0.106,0 0.183,-0.074 0.207,-0.189 0.263,-0.474 0.218,-0.811 0.21,-0.875 0.196,-1.007 0.109,-1.095 0.001,-1.095 H -8.063 L -8.028,-1.1 c -2.709,0 -4.847,-0.916 -4.847,-2.931 0,-2.014 2.167,-2.933 4.847,-2.933 2.68,0 4.848,0.919 4.848,2.933 0,0.921 -0.449,1.614 -1.195,2.089 h 3.072 c 0.422,-0.544 0.653,-1.197 0.653,-1.959 0,-2.87 -3.305,-4.177 -7.378,-4.177 -4.073,0 -7.377,1.307 -7.377,4.177 0,1.203 0.585,2.139 1.566,2.806 h -2.227 L -16.791,0 Z" /></g><g
           transform="translate(177.9556,518.3223)"
           id="g142"><path
             id="path144"
             style="fill:#007ec3;fill-opacity:1;fill-rule:nonzero;stroke:none"
             d="m 0,0 -0.649,-1.003 c -4.015,0 -6.847,1.18 -7.811,2.695 -0.965,-1.515 -3.798,-2.695 -7.812,-2.695 L -16.922,0 c 3.543,0 6.887,1.613 6.887,3.798 h -5.785 l -0.709,1.101 h 15.526 c 0.176,0 0.216,-0.216 0.216,-0.55 0,-0.334 -0.04,-0.551 -0.216,-0.551 H -6.887 C -6.887,1.613 -3.542,0 0,0" /></g><g
           transform="translate(187.5522,522.0952)"
           id="g146"><path
             id="path148"
             style="fill:#007ec3;fill-opacity:1;fill-rule:nonzero;stroke:none"
             d="M 0,0 H -6.532 L -7.24,1.103 h 9.642 c 0.315,0 0.59,-0.276 0.59,-0.591 v -4.998 h 2.754 v 6.179 h 1.967 c 0.315,0 0.59,-0.276 0.59,-0.59 v -13.262 -0.394 -0.709 H -5.076 c -0.65,0 -1.181,0.533 -1.181,1.181 v 3.345 h 1.968 c 0.316,0 0.59,-0.275 0.59,-0.591 v -2.243 c 0,-0.315 0.276,-0.589 0.59,-0.589 h 8.855 v 3.502 H 1.731 l -0.707,1.101 h 4.722 v 1.969 h -6.985 v -2.756 h -2.557 v 2.756 h -3.327 l -0.708,1.101 h 8.264 v 4.08 C 0.433,-0.028 0,0 0,0" /></g><g
           transform="translate(119.835,523.6162)"
           id="g150"><path
             id="path152"
             style="fill:#007ec3;fill-opacity:1;fill-rule:nonzero;stroke:none"
             d="m 0,0 h -2.285 v -5.898 h -9.34 V 0 h -2.284 c -0.539,0 -0.981,-0.519 -0.981,-1.163 v -12.468 c 0,-0.64 0.439,-1.164 0.981,-1.164 h 2.284 v 6.335 h 9.34 v -6.335 H 0 c 0.543,0 0.983,0.524 0.983,1.164 V -1.163 C 0.983,-0.519 0.547,0 0,0" /></g><g
           transform="translate(101.1353,523.6162)"
           id="g154"><path
             id="path156"
             style="fill:#007ec3;fill-opacity:1;fill-rule:nonzero;stroke:none"
             d="m 0,0 h -2.285 v -11.33 l -6.869,9.051 C -10.296,-0.958 -11.081,0 -12.906,0 h -2.328 v -13.631 c 0,-0.64 0.438,-1.164 0.986,-1.164 h 2.282 v 11.381 l 6.913,-8.988 c 1.167,-1.352 2.207,-2.393 3.9,-2.393 H 0.981 V -1.163 C 0.981,-0.519 0.541,0 0,0" /></g><g
           transform="translate(124.29,517.0767)"
           id="g158"><path
             id="path160"
             style="fill:#007ec3;fill-opacity:1;fill-rule:nonzero;stroke:none"
             d="m 0,0 v 6.226 h 14.759 c 0.177,0 0.217,-0.217 0.217,-0.551 0,-0.336 -0.04,-0.552 -0.217,-0.552 H 2.562 V 3.211 H 14.66 c 0.178,0 0.217,-0.216 0.217,-0.551 0,-0.335 -0.039,-0.552 -0.217,-0.552 H 2.562 V 0.512 c 0,-0.316 0.275,-0.592 0.59,-0.592 h 11.804 c 0.176,0 0.217,-0.215 0.217,-0.55 0,-0.336 -0.041,-0.553 -0.217,-0.553 H 1.182 C 0.533,-1.183 0,-0.65 0,0 M 15.744,-3.921 H 8.769 V -8.257 H 6.208 v 4.336 h -6.877 l -0.71,1.103 h 17.123 c 0.177,0 0.216,-0.217 0.216,-0.552 0,-0.335 -0.039,-0.551 -0.216,-0.551" /></g><g
           transform="translate(155.4224,508.8203)"
           id="g162"><path
             id="path164"
             style="fill:#007ec3;fill-opacity:1;fill-rule:nonzero;stroke:none"
             d="m 0,0 v 14.975 h 1.971 c 0.315,0 0.591,-0.276 0.591,-0.592 v -3.94 h 1.951 c 0.177,0 0.216,-0.216 0.216,-0.551 C 4.729,9.556 4.69,9.339 4.513,9.339 H 2.562 V 0 Z m -2.443,1.182 c -2.05,0.65 -4.394,2.345 -5.241,4.335 -0.848,-1.99 -3.193,-3.685 -5.242,-4.335 l -0.867,0.808 c 2.562,0.946 4.827,3.547 4.827,7.153 v 4.137 h -3.724 l -0.709,1.103 h 11.015 c 0.177,0 0.217,-0.216 0.217,-0.551 0,-0.335 -0.04,-0.552 -0.217,-0.552 h -4.02 V 9.143 c 0,-3.606 2.266,-6.207 4.828,-7.153 z" /></g></g></g></g></svg>
